<?xml version="1.0" standalone="no"?>
<!DOCTYPE svg PUBLIC "-//W3C//DTD SVG 20010904//EN"
 "http://www.w3.org/TR/2001/REC-SVG-20010904/DTD/svg10.dtd">
<svg version="1.0" xmlns="http://www.w3.org/2000/svg"
 width="763.000000pt" height="763.000000pt" viewBox="0 0 763.000000 763.000000"
 preserveAspectRatio="xMidYMid meet">
<metadata>
Created by potrace 1.14, written by Peter Selinger 2001-2017
</metadata>
<g transform="translate(0.000000,763.000000) scale(0.100000,-0.100000)"
fill="#000000" stroke="none">
<path d="M3785 7253 c-2 -7 -13 -13 -23 -13 -22 0 -45 -23 -34 -34 4 -4 3 -7
-3 -6 -20 4 -36 0 -31 -9 3 -5 -1 -12 -10 -15 -8 -3 -13 -10 -9 -15 3 -6 -3
-14 -12 -20 -10 -5 -15 -13 -11 -16 4 -4 1 -14 -7 -22 -8 -8 -15 -23 -15 -34
0 -11 -4 -18 -9 -14 -6 3 -8 -4 -6 -15 2 -11 -1 -20 -7 -20 -6 0 -8 -3 -5 -7
4 -3 2 -12 -4 -20 -9 -10 -8 -13 2 -13 11 0 11 -2 2 -8 -7 -4 -14 -17 -16 -27
-1 -11 -7 -26 -11 -34 -7 -10 -6 -12 4 -6 9 5 11 4 6 -3 -4 -7 -15 -12 -24
-12 -12 0 -13 -3 -5 -8 13 -8 6 -52 -8 -52 -5 0 -6 -7 -3 -15 4 -8 1 -21 -5
-29 -6 -7 -8 -16 -4 -19 3 -4 -2 -17 -13 -29 -13 -14 -14 -19 -4 -14 12 6 12
5 -1 -6 -8 -7 -15 -27 -14 -45 0 -17 -3 -29 -7 -27 -7 4 -12 -11 -6 -18 1 -2
-4 -14 -11 -27 -11 -19 -11 -22 1 -16 10 6 10 5 1 -5 -6 -7 -9 -19 -6 -28 4
-9 2 -13 -3 -9 -6 3 -10 -4 -11 -16 -2 -58 -9 -97 -16 -97 -4 0 -3 -10 4 -21
7 -13 7 -19 1 -15 -6 3 -13 2 -17 -4 -3 -5 -3 -10 2 -10 4 0 8 -13 8 -29 0
-16 -3 -27 -7 -25 -11 7 -16 -20 -6 -38 5 -11 5 -18 0 -18 -5 0 -8 -16 -7 -36
1 -19 -2 -37 -7 -40 -5 -3 -6 -9 -3 -14 3 -5 0 -12 -5 -15 -8 -5 -5 -14 7 -28
10 -11 13 -17 7 -14 -15 9 -20 -8 -20 -65 1 -25 -2 -44 -6 -42 -4 3 -7 -4 -7
-13 0 -34 -9 -88 -16 -107 -7 -15 -5 -18 6 -12 8 4 6 1 -3 -7 -13 -10 -14 -17
-6 -25 9 -9 5 -14 -13 -21 -13 -5 -19 -10 -13 -10 13 -1 15 -31 2 -31 -5 0 -7
-4 -3 -9 3 -5 0 -13 -6 -16 -5 -4 -8 -13 -5 -21 3 -8 2 -14 -3 -14 -5 0 -7
-12 -5 -26 1 -16 -2 -24 -9 -21 -8 3 -13 -7 -14 -26 0 -16 -8 -34 -16 -39 -9
-5 -14 -15 -11 -23 4 -8 1 -15 -6 -15 -6 0 -8 -5 -4 -11 3 -6 2 -14 -4 -18 -6
-3 -12 -13 -14 -21 -2 -8 -10 -20 -18 -27 -8 -6 -15 -15 -15 -20 0 -15 -74
-85 -84 -79 -5 3 -12 -1 -15 -10 -3 -8 -10 -12 -16 -9 -5 3 -10 2 -10 -3 0 -6
-9 -8 -20 -5 -12 3 -20 0 -20 -7 0 -8 -4 -9 -12 -3 -11 8 -34 12 -85 16 -7 0
-13 3 -13 7 0 3 -16 12 -35 20 -19 8 -35 17 -35 22 0 4 -5 8 -11 8 -16 0 -39
26 -31 35 4 5 2 5 -5 2 -6 -4 -20 4 -31 18 -11 14 -25 25 -30 25 -6 0 -14 9
-17 20 -3 11 -10 20 -14 20 -4 0 -27 18 -51 40 -24 22 -47 40 -50 40 -4 0 -15
10 -24 23 -9 12 -14 16 -10 8 6 -13 -44 19 -74 47 -16 14 -26 16 -17 3 3 -5
-8 -3 -25 5 -16 9 -30 21 -30 27 0 7 -4 6 -10 -3 -7 -12 -10 -12 -10 -1 0 7
-6 11 -15 8 -8 -4 -17 -2 -21 4 -3 6 -13 8 -22 4 -8 -3 -18 -1 -22 5 -7 12
-204 20 -222 9 -7 -5 -19 -2 -27 4 -12 9 -13 9 -7 0 7 -13 -9 -18 -46 -15 -10
1 -18 -3 -18 -9 0 -6 -7 -8 -16 -5 -8 3 -12 2 -9 -4 3 -6 -1 -10 -10 -10 -10
0 -13 -5 -9 -12 5 -7 2 -9 -9 -5 -9 3 -18 0 -21 -9 -3 -8 0 -14 7 -14 7 -1 5
-6 -5 -14 -20 -15 -25 -31 -6 -20 7 5 8 3 2 -7 -13 -21 -14 -39 -1 -39 5 0 7
-3 4 -6 -4 -4 3 -16 16 -26 23 -20 120 -68 138 -68 6 0 7 -6 3 -12 -4 -7 -4
-10 1 -6 11 11 85 -30 85 -47 0 -9 6 -12 17 -8 10 4 14 2 10 -4 -8 -13 52 -85
65 -77 4 3 8 -2 8 -10 0 -9 6 -16 13 -16 8 0 20 -11 27 -25 7 -14 15 -23 18
-21 2 3 18 -9 34 -25 17 -16 34 -29 38 -29 4 0 12 -10 18 -22 6 -13 11 -17 11
-10 1 10 4 10 16 -2 8 -8 15 -19 15 -25 0 -5 9 -13 20 -16 11 -4 18 -11 15
-16 -4 -5 -1 -9 5 -9 14 0 80 -66 80 -80 0 -6 3 -9 8 -7 4 2 23 -14 42 -37 19
-22 29 -36 21 -31 -10 6 -12 4 -7 -4 5 -7 14 -10 21 -7 9 3 12 -2 10 -15 -3
-15 0 -19 11 -15 9 3 12 2 9 -4 -4 -6 1 -17 9 -26 9 -9 13 -21 9 -27 -4 -6 0
-8 10 -4 9 3 16 3 16 -1 -3 -19 2 -33 10 -27 6 3 8 -4 6 -15 -2 -11 -1 -19 3
-16 4 2 16 -8 26 -22 12 -16 14 -23 5 -18 -8 4 -6 1 3 -7 10 -8 15 -17 11 -20
-3 -4 2 -9 11 -13 9 -3 13 -10 10 -15 -3 -5 0 -9 6 -9 6 0 9 -4 5 -9 -3 -5 2
-16 11 -25 8 -9 12 -21 8 -27 -4 -8 -3 -9 4 -5 12 7 15 -1 15 -36 0 -9 5 -14
11 -12 7 3 12 -6 13 -18 1 -13 7 -24 13 -26 7 -3 7 -9 -2 -20 -10 -12 -10 -14
0 -8 14 9 36 -39 27 -62 -4 -12 -2 -12 8 -4 11 10 13 6 12 -18 -1 -16 2 -27 6
-24 4 2 10 0 14 -6 3 -5 1 -10 -6 -10 -7 0 -3 -8 8 -17 11 -10 18 -24 16 -30
-3 -7 0 -13 7 -13 6 0 8 -4 5 -10 -3 -5 -1 -10 5 -10 7 0 10 -7 6 -15 -3 -8
-1 -15 5 -15 6 0 7 -4 4 -10 -3 -5 -1 -10 5 -10 6 0 8 -4 5 -10 -3 -6 0 -10 7
-10 9 0 9 -3 -2 -10 -12 -8 -12 -10 -1 -10 8 0 11 -3 8 -7 -4 -3 -1 -13 6 -21
10 -13 9 -14 -1 -8 -11 7 -12 4 -3 -11 5 -11 10 -28 10 -39 0 -10 2 -32 5 -49
12 -64 13 -81 5 -96 -5 -9 -5 -19 -1 -23 7 -8 10 -226 2 -221 -3 2 -5 -14 -5
-36 0 -21 3 -39 7 -39 4 0 5 -7 2 -15 -4 -8 -11 -12 -18 -8 -6 3 -2 -4 8 -16
19 -21 19 -21 1 -15 -13 5 -16 4 -10 -5 4 -8 2 -17 -6 -22 -8 -5 -9 -9 -3 -9
12 0 11 -86 -1 -98 -5 -4 -5 -1 0 7 5 10 4 12 -4 7 -6 -4 -9 -12 -6 -17 11
-17 14 -50 5 -44 -6 3 -10 -4 -9 -17 1 -29 -4 -49 -15 -67 -7 -10 -6 -12 4 -6
10 6 11 4 5 -11 -4 -10 -8 -35 -9 -54 -1 -20 -5 -41 -10 -48 -4 -7 -4 -16 -1
-22 3 -5 2 -10 -3 -10 -5 0 -8 -14 -7 -30 1 -17 -2 -33 -6 -35 -4 -3 -6 -18
-5 -35 1 -16 -1 -30 -5 -30 -3 0 -5 -11 -4 -25 2 -14 -1 -28 -6 -31 -6 -3 -5
-12 3 -22 11 -14 10 -15 -6 -9 -16 6 -17 5 -6 -8 7 -8 9 -15 4 -15 -5 0 -10
-12 -10 -27 -3 -46 -11 -89 -19 -104 -7 -11 -5 -11 10 1 17 14 18 14 7 -6 -6
-12 -13 -44 -15 -71 -2 -27 -7 -55 -11 -61 -4 -7 -4 -12 1 -12 4 0 8 -11 8
-25 0 -17 -4 -24 -14 -20 -11 4 -11 2 -3 -8 7 -8 9 -17 5 -21 -4 -4 -1 -11 7
-16 13 -9 13 -10 0 -10 -12 0 -15 -14 -15 -70 0 -39 -3 -76 -7 -82 -3 -7 -2
-21 4 -31 8 -16 7 -19 -5 -14 -12 4 -13 -1 -7 -29 5 -19 4 -32 -1 -28 -5 3 -7
-5 -5 -18 2 -13 0 -33 -5 -45 -5 -15 -5 -23 2 -23 6 0 7 -5 4 -10 -4 -6 -10
-8 -14 -6 -4 3 -6 -15 -5 -40 1 -24 -2 -44 -6 -44 -10 0 -8 -20 3 -37 5 -9 3
-11 -6 -7 -10 4 -13 -3 -12 -26 1 -16 -2 -30 -7 -30 -5 0 -7 -4 -3 -9 3 -5 2
-12 -3 -15 -4 -2 -7 -21 -7 -41 1 -24 -3 -39 -13 -42 -11 -5 -11 -7 0 -14 10
-7 11 -9 0 -9 -7 0 -10 -5 -7 -10 4 -6 0 -24 -9 -40 -8 -17 -11 -28 -6 -25 5
3 11 1 14 -4 3 -5 -4 -11 -16 -14 -17 -5 -19 -9 -10 -20 10 -11 9 -17 -3 -27
-8 -7 -15 -18 -14 -24 0 -7 2 -6 6 2 2 6 9 12 15 12 6 0 4 -8 -5 -18 -10 -10
-14 -22 -10 -25 3 -4 2 -7 -4 -7 -6 0 -9 -13 -8 -30 2 -18 -1 -27 -8 -23 -6 4
-8 -2 -4 -16 3 -14 0 -24 -9 -28 -11 -4 -12 -9 -3 -19 9 -11 8 -14 -1 -14 -7
0 -10 -8 -7 -20 3 -11 1 -18 -4 -14 -5 3 -10 0 -10 -5 -3 -21 -4 -26 -13 -40
-6 -9 -5 -12 1 -8 5 3 10 0 10 -8 0 -8 -5 -13 -11 -12 -6 1 -10 -4 -9 -10 2
-7 -2 -13 -7 -13 -7 0 -8 -6 -2 -17 7 -12 4 -21 -12 -34 -11 -10 -16 -18 -9
-19 9 0 8 -7 -2 -27 -8 -15 -12 -30 -10 -34 3 -4 -2 -10 -11 -13 -13 -5 -14
-9 -4 -21 7 -9 8 -15 2 -15 -5 0 -9 -14 -8 -31 2 -21 -4 -33 -16 -40 -15 -8
-16 -14 -8 -29 7 -13 7 -20 1 -20 -5 0 -8 -9 -6 -20 3 -13 0 -18 -7 -14 -7 5
-9 0 -6 -14 4 -12 2 -25 -3 -28 -5 -3 -7 -10 -4 -15 4 -5 1 -9 -4 -9 -6 0 -11
-5 -11 -11 0 -5 4 -7 10 -4 5 3 10 1 10 -4 0 -6 -4 -11 -10 -11 -5 0 -9 -3 -9
-7 4 -23 -2 -43 -11 -38 -7 4 -9 -3 -6 -19 3 -16 0 -26 -7 -26 -8 0 -7 -3 2
-9 10 -6 10 -10 1 -13 -7 -2 -13 -18 -13 -36 -1 -18 -6 -31 -12 -28 -5 2 -11
-13 -11 -33 -2 -72 -4 -82 -14 -76 -5 3 -10 2 -10 -4 0 -5 4 -13 10 -16 6 -4
3 -16 -8 -33 -13 -20 -14 -24 -2 -17 13 8 13 6 2 -8 -8 -9 -10 -22 -6 -28 4
-8 3 -9 -4 -5 -9 5 -11 -3 -7 -29 2 -21 0 -33 -5 -30 -6 3 -7 -1 -4 -9 3 -9 2
-16 -3 -16 -5 0 -9 -16 -8 -35 1 -20 -2 -38 -7 -41 -4 -3 -6 -10 -3 -15 4 -5
1 -9 -4 -9 -6 0 -11 -5 -11 -11 0 -5 4 -7 10 -4 6 3 7 -1 4 -9 -3 -9 -11 -13
-18 -9 -6 4 -6 0 2 -9 9 -11 10 -18 2 -23 -6 -3 -8 -11 -5 -16 4 -5 -2 -9 -12
-9 -14 0 -15 -2 -4 -9 7 -5 11 -13 7 -19 -21 -35 53 -39 867 -42 l599 -2 28
27 c16 16 27 32 24 37 -3 4 -1 8 5 8 8 0 17 36 27 105 2 11 5 52 9 90 8 107
20 170 35 190 5 6 11 48 14 95 5 82 10 133 21 230 3 25 8 70 10 100 2 30 7 71
11 90 3 19 8 58 10 85 2 28 6 75 9 105 3 30 7 107 10 170 9 237 16 340 30 497
3 32 8 83 10 113 3 30 7 73 10 95 2 22 7 67 10 100 3 33 7 74 10 90 2 17 7 71
10 120 3 50 8 110 11 135 2 25 6 124 9 220 9 308 23 480 59 715 9 59 29 141
37 151 5 6 6 13 3 16 -8 8 17 88 28 88 4 0 8 6 8 14 0 15 103 158 137 192 11
11 33 37 49 59 16 22 35 44 41 48 7 4 13 14 13 21 0 8 7 17 16 20 8 3 13 10 9
15 -3 5 0 13 5 16 10 6 26 40 75 150 13 31 36 99 42 125 5 18 8 31 16 50 20
51 58 167 59 178 1 6 5 12 10 12 4 0 8 5 8 12 0 19 62 110 106 155 23 23 39
45 36 48 -3 3 0 5 6 5 6 0 27 15 46 33 18 17 44 39 56 47 13 8 32 23 42 33 10
9 21 17 24 17 3 0 12 7 21 15 8 8 20 12 26 8 6 -4 8 0 4 10 -5 12 -1 17 12 17
10 0 21 7 25 15 3 8 11 15 18 15 8 0 21 8 29 18 24 27 88 82 95 82 3 0 18 13
32 28 15 16 34 27 42 24 8 -3 12 -1 8 3 -4 4 17 23 47 42 30 19 55 39 55 44 0
6 4 8 9 4 5 -3 12 -1 16 5 4 6 11 7 17 4 6 -4 8 -3 5 3 -3 5 6 18 21 29 15 10
37 29 50 42 13 12 27 22 33 22 6 0 7 5 4 10 -3 6 -1 10 4 10 6 0 11 6 11 13 0
7 9 19 19 27 11 7 18 17 16 21 -3 3 5 19 17 35 13 15 16 24 8 19 -12 -7 -13
-6 -4 6 6 8 12 41 13 74 1 51 -2 64 -23 89 -15 17 -31 26 -40 23 -9 -4 -18 -2
-21 2 -8 13 -46 1 -39 -13 3 -6 -2 -2 -10 8 -14 17 -19 16 -18 -4 0 -3 -13 -6
-30 -6 -17 -1 -34 -7 -38 -14 -4 -7 -13 -9 -19 -6 -6 4 -11 0 -12 -11 0 -12
-2 -13 -6 -5 -4 10 -9 8 -20 -7 -8 -12 -19 -19 -24 -16 -5 4 -9 -2 -9 -12 0
-15 -2 -16 -10 -3 -9 14 -14 7 -11 -13 1 -4 -7 -10 -16 -14 -10 -3 -28 -17
-40 -31 -13 -14 -23 -22 -23 -19 0 3 -11 -5 -25 -19 -14 -14 -30 -22 -37 -18
-6 4 -9 3 -6 -2 7 -11 -17 -35 -26 -27 -3 4 -6 1 -6 -5 0 -7 -6 -11 -12 -10
-7 2 -12 -2 -11 -9 2 -7 -6 -10 -17 -8 -11 2 -28 -4 -38 -14 -9 -10 -27 -17
-39 -16 -12 1 -25 -5 -28 -12 -2 -8 -9 -11 -15 -8 -5 3 -10 -1 -10 -10 0 -9
-5 -15 -12 -13 -14 5 -49 -22 -42 -33 2 -4 -8 -6 -22 -3 -25 5 -26 3 -13 -12
13 -16 12 -17 -9 -12 -12 4 -20 2 -16 -3 3 -5 -3 -12 -13 -16 -10 -4 -27 -15
-37 -25 -12 -11 -28 -16 -40 -12 -16 4 -18 3 -7 -5 12 -8 10 -11 -12 -16 -15
-4 -25 -10 -22 -15 2 -4 -11 -6 -30 -5 -19 1 -35 -3 -35 -8 0 -5 -8 -3 -17 4
-14 12 -16 12 -11 -2 6 -14 3 -14 -26 -1 -31 14 -32 16 -22 46 6 17 19 42 28
55 9 13 14 29 11 34 -3 6 -2 7 4 4 5 -3 17 10 28 29 10 19 22 34 27 34 5 0 7
4 4 9 -3 5 1 12 10 15 9 4 14 9 11 12 -3 3 5 16 18 29 14 12 22 25 18 28 -3 4
-1 7 6 7 7 0 17 13 22 30 6 16 16 28 22 27 7 -1 11 6 11 16 -1 9 5 17 13 17 8
0 11 5 8 10 -3 6 1 10 9 10 9 0 17 5 17 10 1 6 2 16 3 23 1 6 7 11 14 9 7 -1
12 7 12 19 0 11 5 17 10 14 9 -6 14 8 11 28 0 4 6 7 14 7 8 0 14 3 14 8 -3 12
25 72 33 72 4 0 8 5 8 11 0 7 8 18 18 25 16 13 16 14 -3 8 l-20 -6 20 17 c11
9 20 20 20 26 0 5 7 14 15 19 8 5 15 13 15 19 0 5 9 17 20 27 12 11 16 17 10
14 -6 -3 1 6 16 20 15 14 30 35 34 48 3 12 10 20 15 17 5 -3 14 4 20 15 6 11
7 20 4 20 -4 0 6 12 23 28 31 28 69 90 64 106 -1 5 4 4 12 -2 12 -10 13 -8 9
14 -3 19 -1 25 6 20 8 -5 10 -2 6 8 -3 9 -2 16 4 16 6 0 9 11 8 25 -2 13 0 22
5 20 4 -3 8 3 7 12 0 10 3 28 5 41 3 12 1 22 -4 22 -6 0 -8 4 -5 9 9 14 -4 41
-20 41 -8 0 -14 5 -14 11 0 5 6 7 13 3 6 -4 1 5 -13 19 -14 13 -28 24 -32 23
-4 0 -14 8 -23 19 -9 11 -14 15 -11 9 3 -7 -1 -15 -10 -18 -8 -3 -12 -2 -9 4
3 6 1 10 -4 10 -6 0 -11 -6 -11 -12 0 -10 -2 -10 -8 0 -10 14 -42 6 -42 -12 0
-6 -5 -4 -10 4 -6 9 -10 10 -10 3 0 -7 -12 -18 -27 -26 -16 -7 -27 -19 -26
-25 2 -7 -3 -11 -10 -9 -6 1 -11 -4 -10 -10 2 -7 0 -12 -5 -12 -19 3 -32 -2
-32 -14 0 -7 -13 -23 -29 -36 -18 -15 -27 -30 -23 -39 3 -10 1 -13 -6 -8 -7 4
-12 1 -12 -9 0 -11 -5 -15 -16 -11 -8 3 -12 2 -9 -4 3 -6 1 -10 -5 -10 -6 0
-9 -4 -6 -9 3 -5 -2 -15 -12 -22 -15 -13 -16 -12 -3 4 9 12 10 17 2 17 -7 0
-10 4 -7 9 3 5 -1 14 -9 21 -12 10 -15 10 -15 -1 0 -11 -2 -11 -9 -1 -4 7 -14
12 -22 10 -8 -2 -13 2 -12 8 1 7 -6 10 -17 7 -15 -4 -20 0 -20 13 0 11 -3 15
-8 8 -4 -7 -16 -1 -33 17 -15 15 -26 29 -24 31 2 2 -7 3 -20 3 -13 0 -21 -3
-19 -7 3 -4 -4 -6 -15 -5 -19 1 -19 2 1 29 11 16 17 35 14 43 -3 10 0 12 12 8
9 -3 14 -3 10 2 -4 4 -2 17 4 29 7 11 11 24 10 29 -1 4 5 7 13 7 9 0 12 6 9
15 -4 8 -1 15 6 15 6 0 8 5 5 10 -3 6 4 14 17 19 13 4 22 12 21 17 0 5 3 8 8
7 4 -2 6 4 3 12 -4 8 -1 15 5 15 6 0 11 12 11 26 0 14 4 23 8 20 11 -6 9 34
-1 51 -4 6 -3 14 3 18 5 3 10 11 10 16 0 6 -5 7 -12 3 -7 -5 -9 -2 -5 8 3 9
-2 26 -10 39 -9 12 -11 19 -5 15 7 -4 12 -2 12 3 0 6 -6 11 -14 11 -8 0 -18 9
-21 20 -3 11 -11 20 -16 20 -6 0 -7 5 -3 12 4 6 3 8 -4 4 -6 -3 -13 -2 -17 3
-3 6 -13 7 -22 4 -11 -4 -14 -3 -9 5 7 11 3 13 -44 16 -8 1 -21 5 -29 10 -10
7 -12 6 -6 -4 6 -10 4 -12 -8 -7 -9 3 -18 0 -21 -9 -3 -9 -10 -13 -15 -10 -4
3 -19 -3 -31 -14 -12 -11 -27 -17 -32 -14 -4 3 -8 2 -7 -3 4 -20 -2 -34 -12
-28 -6 4 -9 0 -7 -11 2 -13 -2 -18 -12 -16 -8 2 -12 0 -8 -4 4 -4 2 -14 -5
-22 -10 -13 -9 -14 2 -8 8 6 7 0 -4 -18 -10 -14 -22 -26 -27 -26 -5 0 -6 -4
-3 -10 3 -5 1 -10 -5 -10 -7 0 -10 -6 -8 -12 3 -7 -5 -21 -16 -31 -12 -10 -14
-15 -6 -11 8 4 5 -4 -7 -18 -13 -13 -23 -29 -23 -34 0 -5 -9 -16 -19 -24 -11
-7 -18 -17 -15 -22 3 -4 -2 -11 -10 -14 -9 -3 -13 -11 -10 -16 4 -5 -9 -26
-27 -45 -19 -20 -28 -32 -20 -28 9 5 12 4 7 -3 -4 -7 -15 -12 -24 -12 -14 0
-14 -2 -3 -9 11 -7 10 -11 -5 -19 -11 -6 -18 -14 -17 -19 8 -26 -13 -49 -41
-44 -5 1 -4 -4 3 -13 8 -9 9 -16 2 -21 -6 -3 -16 -15 -22 -27 -8 -14 -8 -18 0
-14 7 5 9 1 5 -9 -4 -9 -9 -14 -11 -11 -7 7 -32 -18 -26 -26 2 -5 -1 -8 -8 -8
-7 0 -9 -3 -6 -6 4 -4 -3 -15 -14 -25 -12 -10 -18 -23 -14 -28 3 -7 -3 -11
-16 -11 -18 0 -19 -2 -9 -15 10 -12 9 -15 -4 -15 -10 0 -15 -4 -12 -8 3 -5 -8
-35 -24 -68 -20 -42 -25 -61 -17 -66 8 -5 6 -8 -5 -8 -11 0 -18 -8 -18 -20 0
-11 -4 -20 -9 -20 -5 0 -8 -11 -7 -25 2 -13 -2 -23 -7 -22 -6 1 -12 -2 -13 -8
-5 -31 -17 -54 -25 -49 -5 3 -9 -4 -9 -14 0 -23 -23 -45 -35 -34 -5 4 -5 1 -1
-5 4 -7 3 -13 -3 -13 -6 0 -8 -7 -4 -17 5 -13 2 -15 -15 -11 -16 4 -19 2 -15
-10 4 -10 2 -13 -5 -8 -7 4 -12 2 -12 -5 0 -8 -3 -9 -13 0 -8 6 -17 8 -20 4
-4 -3 -15 3 -25 15 -11 12 -23 18 -27 14 -5 -4 -5 -2 -1 5 3 6 2 14 -3 17 -5
3 -8 19 -7 36 1 16 -1 30 -6 30 -4 0 -6 6 -3 13 2 6 6 44 9 84 3 39 10 92 16
117 5 25 10 49 9 53 -1 5 0 10 1 13 5 14 10 51 15 110 10 108 14 143 23 180 5
19 9 37 10 40 0 3 3 12 5 20 18 59 24 89 23 113 -1 15 2 27 6 27 3 0 5 11 2
25 -2 14 0 25 4 25 10 0 8 148 -2 189 -3 12 -11 30 -18 39 -9 11 -9 14 -1 9 7
-4 0 11 -15 33 -14 23 -28 37 -30 31 -2 -6 -8 -8 -14 -5 -20 13 -108 10 -113
-3z m1008 -600 c-7 -3 -10 -12 -7 -21 5 -15 4 -15 -9 0 -8 10 -16 17 -18 15
-2 -1 2 3 10 10 8 7 19 9 24 6 8 -5 7 -8 0 -10z m67 3 c0 -2 -8 -10 -17 -17
-16 -13 -17 -12 -4 4 13 16 21 21 21 13z m-76 -48 c8 -13 13 -16 10 -7 -4 14
3 18 39 20 25 2 44 2 42 -1 -5 -8 22 -29 29 -23 3 3 3 -4 1 -17 -3 -16 0 -20
10 -16 9 3 12 0 8 -9 -3 -8 -9 -13 -13 -10 -5 3 -12 1 -15 -5 -4 -6 -3 -10 2
-9 4 1 16 -1 26 -6 10 -4 24 -2 34 6 9 8 14 9 10 2 -4 -6 -4 -13 0 -16 5 -2 2
-2 -4 -1 -7 2 -13 -1 -13 -6 0 -6 4 -10 9 -10 5 0 12 -7 15 -16 5 -14 4 -15
-8 -5 -11 9 -15 8 -19 -4 -4 -8 -3 -14 1 -12 4 1 8 -2 9 -8 1 -5 -5 -9 -14 -7
-8 2 -13 0 -10 -5 7 -11 -19 -34 -28 -25 -4 4 -5 3 -4 -3 5 -16 -21 -56 -32
-50 -5 4 -9 3 -8 -2 4 -17 -14 -43 -29 -43 -8 0 -12 -3 -9 -7 4 -3 -1 -15 -10
-26 -10 -10 -18 -22 -18 -26 0 -3 -4 -5 -9 -3 -5 2 -6 -4 -3 -12 4 -9 1 -15
-5 -13 -5 1 -19 -14 -30 -33 -10 -19 -28 -43 -40 -52 -11 -10 -17 -18 -14 -18
3 0 -3 -9 -14 -20 -12 -12 -18 -25 -15 -31 4 -5 2 -8 -3 -7 -6 2 -11 -1 -12
-7 -1 -5 -11 -15 -23 -22 -12 -7 -18 -12 -14 -13 4 0 -7 -14 -25 -32 -18 -18
-32 -36 -30 -40 1 -4 -1 -7 -5 -7 -23 4 -32 -3 -26 -18 5 -12 2 -15 -9 -11
-16 7 -51 -26 -40 -37 4 -3 -1 -3 -11 1 -10 3 -17 1 -17 -6 0 -6 -4 -9 -9 -6
-5 3 -12 -2 -16 -12 -7 -16 -8 -15 -15 3 -12 27 -12 47 -1 41 14 -9 23 27 9
36 -10 6 -9 11 5 19 9 6 15 14 12 20 -4 5 -1 9 5 9 6 0 8 5 5 10 -3 6 -1 10 4
10 6 0 11 5 11 11 0 5 -6 7 -12 4 -7 -4 -5 0 6 9 10 8 15 20 10 27 -4 7 -3 10
3 6 6 -4 14 0 17 9 4 10 2 13 -7 9 -6 -4 -1 2 12 13 18 15 21 21 10 25 -10 4
-9 6 3 6 11 1 15 6 12 16 -4 8 -1 15 5 15 6 0 11 6 11 13 0 7 10 24 23 37 12
14 21 26 20 27 -9 10 -1 23 10 17 7 -5 6 0 -3 11 -8 10 -10 16 -4 12 11 -6 17
0 24 28 2 6 10 16 19 23 9 8 10 11 3 7 -7 -4 -5 7 7 27 10 18 24 32 31 30 6
-1 9 2 5 8 -3 6 -10 8 -15 5 -6 -3 -2 7 7 24 10 16 21 27 26 24 5 -3 4 4 -2
15 -8 16 -7 23 7 33 16 13 16 12 2 -6 -14 -18 -14 -19 2 -7 9 8 14 20 11 28
-3 8 1 14 8 14 11 0 11 3 -1 10 -13 8 -12 10 3 10 10 0 16 4 13 9 -4 5 -1 11
4 13 10 3 16 21 19 51 2 14 19 7 35 -15z m166 -57 c0 -5 -7 -12 -16 -15 -14
-5 -15 -4 -4 9 14 17 20 19 20 6z"/>
</g>
</svg>
